<?xml version="1.0" standalone="no"?>
<!DOCTYPE svg PUBLIC "-//W3C//DTD SVG 20010904//EN"
 "http://www.w3.org/TR/2001/REC-SVG-20010904/DTD/svg10.dtd">
<svg version="1.0" xmlns="http://www.w3.org/2000/svg"
 width="460.000000pt" height="460.000000pt" viewBox="0 0 460.000000 460.000000"
 preserveAspectRatio="xMidYMid meet">
<metadata>
Created by potrace 1.14, written by Peter Selinger 2001-2017
</metadata>
<g transform="translate(0.000000,460.000000) scale(0.100000,-0.100000)"
fill="#000000" stroke="none">
<path d="M2129 4586 c-2 -2 -34 -6 -70 -10 -37 -3 -73 -8 -80 -10 -14 -5 -51
-10 -154 -22 -47 -6 -217 -54 -260 -74 -11 -5 -58 -23 -105 -39 -97 -34 -303
-137 -371 -186 -26 -18 -62 -41 -80 -51 -19 -9 -37 -21 -40 -26 -3 -5 -18 -17
-31 -26 -122 -81 -347 -298 -445 -429 -32 -43 -62 -80 -66 -81 -4 -2 -18 -25
-32 -52 -13 -26 -35 -60 -48 -76 -13 -16 -38 -56 -54 -89 -17 -33 -49 -96 -71
-140 -66 -130 -154 -389 -168 -490 -3 -27 -8 -59 -11 -70 -46 -217 -52 -554
-13 -775 5 -30 12 -68 15 -85 3 -16 10 -59 17 -95 6 -35 29 -114 51 -175 21
-60 47 -133 57 -161 28 -81 140 -293 194 -369 27 -38 48 -71 47 -73 -2 -2 19
-31 45 -65 27 -33 63 -79 80 -102 18 -23 43 -51 55 -61 13 -10 37 -36 52 -57
16 -21 44 -48 63 -60 19 -12 36 -29 39 -37 3 -8 26 -31 52 -50 25 -19 62 -49
82 -66 125 -109 410 -268 621 -347 160 -61 291 -94 440 -113 14 -2 48 -8 75
-13 53 -11 563 -8 605 2 13 4 42 9 64 13 22 3 43 7 47 9 3 2 19 6 35 9 16 2
49 8 74 11 52 9 150 40 265 85 44 17 100 38 125 47 25 8 47 18 50 22 3 3 50
28 104 55 55 28 111 60 125 71 14 12 45 33 68 47 59 34 186 132 257 198 162
149 268 271 359 410 31 47 62 91 69 99 19 23 146 275 169 339 62 169 108 313
113 357 4 28 11 73 16 100 28 148 35 226 34 420 0 197 0 200 -59 545 -5 27
-41 135 -98 290 -41 109 -146 314 -200 387 -20 28 -37 55 -37 61 0 6 -6 17
-13 24 -7 7 -44 54 -82 103 -92 119 -258 284 -381 380 -54 43 -100 81 -102 86
-2 5 -10 9 -17 9 -7 0 -42 20 -79 45 -169 116 -602 293 -761 311 -33 3 -69 8
-80 10 -11 2 -40 7 -65 10 -25 3 -54 8 -65 11 -24 6 -420 14 -426 9z"/>
</g>
</svg>
